<?xml version="1.0" encoding="UTF-8" standalone="no"?>
<!-- Created with Inkscape (http://www.inkscape.org/) -->

<svg
   xmlns:dc="http://purl.org/dc/elements/1.1/"
   xmlns:cc="http://creativecommons.org/ns#"
   xmlns:rdf="http://www.w3.org/1999/02/22-rdf-syntax-ns#"
   xmlns:svg="http://www.w3.org/2000/svg"
   xmlns="http://www.w3.org/2000/svg"
   xmlns:sodipodi="http://sodipodi.sourceforge.net/DTD/sodipodi-0.dtd"
   xmlns:inkscape="http://www.inkscape.org/namespaces/inkscape"
   width="120.58632"
   height="60.28656"
   id="svg2"
   sodipodi:version="0.32"
   inkscape:version="0.48.1 "
   sodipodi:docname="Isometric_Floor_Tile_clip_art.svg"
   inkscape:output_extension="org.inkscape.output.svg.inkscape"
   version="1.0"
   inkscape:export-filename="/home/roger/mis-dibujos/open/iso_floor.png"
   inkscape:export-xdpi="180"
   inkscape:export-ydpi="180">
  <defs
     id="defs4">
    <inkscape:perspective
       sodipodi:type="inkscape:persp3d"
       inkscape:vp_x="0 : 526.18109 : 1"
       inkscape:vp_y="0 : 1000 : 0"
       inkscape:vp_z="744.09448 : 526.18109 : 1"
       inkscape:persp3d-origin="372.04724 : 350.78739 : 1"
       id="perspective10" />
    <inkscape:perspective
       id="perspective2468"
       inkscape:persp3d-origin="372.04724 : 350.78739 : 1"
       inkscape:vp_z="744.09448 : 526.18109 : 1"
       inkscape:vp_y="0 : 1000 : 0"
       inkscape:vp_x="0 : 526.18109 : 1"
       sodipodi:type="inkscape:persp3d" />
  </defs>
  <sodipodi:namedview
     id="base"
     pagecolor="#ffffff"
     bordercolor="#666666"
     borderopacity="1.0"
     inkscape:pageopacity="0.0"
     inkscape:pageshadow="2"
     inkscape:zoom="2"
     inkscape:cx="58.987257"
     inkscape:cy="30.464588"
     inkscape:document-units="px"
     inkscape:current-layer="layer1"
     showgrid="true"
     gridtolerance="5"
     guidetolerance="5"
     inkscape:window-width="1272"
     inkscape:window-height="742"
     inkscape:window-x="0"
     inkscape:window-y="0"
     showguides="true"
     inkscape:guide-bbox="true"
     fit-margin-top="0"
     fit-margin-left="0"
     fit-margin-right="0"
     fit-margin-bottom="0"
     inkscape:window-maximized="0">
    <inkscape:grid
       type="axonomgrid"
       id="grid2478"
       units="px"
       visible="true"
       enabled="true"
       gridanglex="26.56"
       gridanglez="26.56"
       spacingy="1px"
       empspacing="5"
       snapvisiblegridlinesonly="true" />
  </sodipodi:namedview>
  <metadata
     id="metadata7">
    <rdf:RDF>
      <cc:Work
         rdf:about="">
        <dc:format>image/svg+xml</dc:format>
        <dc:type
           rdf:resource="http://purl.org/dc/dcmitype/StillImage" />
        <dc:title></dc:title>
      </cc:Work>
    </rdf:RDF>
  </metadata>
  <g
     inkscape:label="Capa 1"
     inkscape:groupmode="layer"
     id="layer1"
     transform="translate(-235.16422,-459.2469)">
    <g
       id="g9967"
       transform="translate(42.952463,154.6393)">
      <path
         style="fill:#4e9a06;fill-opacity:1;fill-rule:nonzero;stroke:none"
         d="m 252.22508,304.6076 -60.01332,30 60.57312,30.28656 60.0132,-30 -60.573,-30.28656 z"
         id="path7553"
         sodipodi:nodetypes="ccccc"
         inkscape:connector-curvature="0" />
      <g
         transform="matrix(0.3594815,0,0,0.3594815,208.07992,237.52186)"
         id="g9110">
        <path
           id="path9112"
           d="m 203.46875,278.125 c -2.55933,-0.27922 -4.59458,1.72624 -6.02505,3.59846 -2.51266,3.32689 -4.14187,7.21769 -5.4437,11.15154 -0.86531,-2.83915 -1.77321,-5.99562 -4.3191,-7.80234 -1.54276,-0.9683 -3.71327,-0.37546 -4.69451,1.11913 -0.94713,1.14918 -1.51366,2.54748 -2.01764,3.93321 1.02758,0.0949 2.83696,1.77147 3.22943,0.0632 0.39921,-0.95132 0.76688,-2.50535 2.06888,-2.40253 1.55591,1.35543 2.05333,3.47063 2.74992,5.3268 0.69301,2.21821 1.09034,4.52439 1.2333,6.84253 1.00972,0.14149 3.1462,1.03406 3.13542,-0.65939 1.17086,-5.74752 3.19877,-11.45 6.74393,-16.17758 0.81726,-1.14921 2.87209,-3.01809 3.91412,-1.10909 0.50278,1.19041 0.70283,3.52383 2.57307,2.40389 0.79144,-0.27029 1.67158,-0.21405 1.05468,-1.25352 -0.58393,-2.14655 -1.77104,-4.60842 -4.20275,-5.03428 z"
           style="fill:#73d216;fill-opacity:1;fill-rule:nonzero;stroke:none"
           inkscape:connector-curvature="0" />
        <path
           id="path9114"
           d="m 203.17942,277.9212 c -2.33766,-0.003 -4.22143,1.86979 -5.5625,3.625 -2.51265,3.32689 -4.13567,7.2224 -5.4375,11.15625 -0.86531,-2.83915 -1.76661,-6.00578 -4.3125,-7.8125 -1.54275,-0.9683 -3.73751,-0.36959 -4.71875,1.125 -0.94713,1.14918 -1.49602,2.55177 -2,3.9375 0.30752,0.0284 0.67388,0.1964 1.0625,0.375 0.35343,-0.7759 0.76781,-1.52661 1.3125,-2.1875 0.98124,-1.49459 3.14475,-2.0933 4.6875,-1.125 2.54589,1.80672 3.4472,4.97335 4.3125,7.8125 1.30183,-3.93385 2.92484,-7.82936 5.4375,-11.15625 1.43047,-1.87222 3.47193,-3.87297 6.03125,-3.59375 1.97577,0.34601 3.13596,2.03952 3.8125,3.8125 0.25905,-0.14843 0.34857,-0.37158 0.0312,-0.90625 -0.58393,-2.14655 -1.75579,-4.60539 -4.1875,-5.03125 -0.15995,-0.0174 -0.3129,-0.0311 -0.46875,-0.0312 z m -12.90625,20.125 c 0.0682,0.57685 0.12051,1.13922 0.15625,1.71875 0.0349,0.005 0.0876,0.0247 0.125,0.0312 -0.0769,-0.58685 -0.16904,-1.16897 -0.28125,-1.75 z"
           style="fill:#3d7904;fill-opacity:1;fill-rule:nonzero;stroke:none"
           inkscape:connector-curvature="0" />
      </g>
      <g
         id="g9116"
         transform="matrix(0.3594815,0,0,0.3594815,151.20117,223.89926)">
        <path
           style="fill:#73d216;fill-opacity:1;fill-rule:nonzero;stroke:none"
           d="m 203.46875,278.125 c -2.55933,-0.27922 -4.59458,1.72624 -6.02505,3.59846 -2.51266,3.32689 -4.14187,7.21769 -5.4437,11.15154 -0.86531,-2.83915 -1.77321,-5.99562 -4.3191,-7.80234 -1.54276,-0.9683 -3.71327,-0.37546 -4.69451,1.11913 -0.94713,1.14918 -1.51366,2.54748 -2.01764,3.93321 1.02758,0.0949 2.83696,1.77147 3.22943,0.0632 0.39921,-0.95132 0.76688,-2.50535 2.06888,-2.40253 1.55591,1.35543 2.05333,3.47063 2.74992,5.3268 0.69301,2.21821 1.09034,4.52439 1.2333,6.84253 1.00972,0.14149 3.1462,1.03406 3.13542,-0.65939 1.17086,-5.74752 3.19877,-11.45 6.74393,-16.17758 0.81726,-1.14921 2.87209,-3.01809 3.91412,-1.10909 0.50278,1.19041 0.70283,3.52383 2.57307,2.40389 0.79144,-0.27029 1.67158,-0.21405 1.05468,-1.25352 -0.58393,-2.14655 -1.77104,-4.60842 -4.20275,-5.03428 z"
           id="path9118"
           inkscape:connector-curvature="0" />
        <path
           style="fill:#3d7904;fill-opacity:1;fill-rule:nonzero;stroke:none"
           d="m 203.17942,277.9212 c -2.33766,-0.003 -4.22143,1.86979 -5.5625,3.625 -2.51265,3.32689 -4.13567,7.2224 -5.4375,11.15625 -0.86531,-2.83915 -1.76661,-6.00578 -4.3125,-7.8125 -1.54275,-0.9683 -3.73751,-0.36959 -4.71875,1.125 -0.94713,1.14918 -1.49602,2.55177 -2,3.9375 0.30752,0.0284 0.67388,0.1964 1.0625,0.375 0.35343,-0.7759 0.76781,-1.52661 1.3125,-2.1875 0.98124,-1.49459 3.14475,-2.0933 4.6875,-1.125 2.54589,1.80672 3.4472,4.97335 4.3125,7.8125 1.30183,-3.93385 2.92484,-7.82936 5.4375,-11.15625 1.43047,-1.87222 3.47193,-3.87297 6.03125,-3.59375 1.97577,0.34601 3.13596,2.03952 3.8125,3.8125 0.25905,-0.14843 0.34857,-0.37158 0.0312,-0.90625 -0.58393,-2.14655 -1.75579,-4.60539 -4.1875,-5.03125 -0.15995,-0.0174 -0.3129,-0.0311 -0.46875,-0.0312 z m -12.90625,20.125 c 0.0682,0.57685 0.12051,1.13922 0.15625,1.71875 0.0349,0.005 0.0876,0.0247 0.125,0.0312 -0.0769,-0.58685 -0.16904,-1.16897 -0.28125,-1.75 z"
           id="path9120"
           inkscape:connector-curvature="0" />
      </g>
      <g
         transform="matrix(0.3594815,0,0,0.3594815,172.51862,220.94959)"
         id="g9122">
        <path
           id="path9124"
           d="m 203.46875,278.125 c -2.55933,-0.27922 -4.59458,1.72624 -6.02505,3.59846 -2.51266,3.32689 -4.14187,7.21769 -5.4437,11.15154 -0.86531,-2.83915 -1.77321,-5.99562 -4.3191,-7.80234 -1.54276,-0.9683 -3.71327,-0.37546 -4.69451,1.11913 -0.94713,1.14918 -1.51366,2.54748 -2.01764,3.93321 1.02758,0.0949 2.83696,1.77147 3.22943,0.0632 0.39921,-0.95132 0.76688,-2.50535 2.06888,-2.40253 1.55591,1.35543 2.05333,3.47063 2.74992,5.3268 0.69301,2.21821 1.09034,4.52439 1.2333,6.84253 1.00972,0.14149 3.1462,1.03406 3.13542,-0.65939 1.17086,-5.74752 3.19877,-11.45 6.74393,-16.17758 0.81726,-1.14921 2.87209,-3.01809 3.91412,-1.10909 0.50278,1.19041 0.70283,3.52383 2.57307,2.40389 0.79144,-0.27029 1.67158,-0.21405 1.05468,-1.25352 -0.58393,-2.14655 -1.77104,-4.60842 -4.20275,-5.03428 z"
           style="fill:#73d216;fill-opacity:1;fill-rule:nonzero;stroke:none"
           inkscape:connector-curvature="0" />
        <path
           id="path9126"
           d="m 203.17942,277.9212 c -2.33766,-0.003 -4.22143,1.86979 -5.5625,3.625 -2.51265,3.32689 -4.13567,7.2224 -5.4375,11.15625 -0.86531,-2.83915 -1.76661,-6.00578 -4.3125,-7.8125 -1.54275,-0.9683 -3.73751,-0.36959 -4.71875,1.125 -0.94713,1.14918 -1.49602,2.55177 -2,3.9375 0.30752,0.0284 0.67388,0.1964 1.0625,0.375 0.35343,-0.7759 0.76781,-1.52661 1.3125,-2.1875 0.98124,-1.49459 3.14475,-2.0933 4.6875,-1.125 2.54589,1.80672 3.4472,4.97335 4.3125,7.8125 1.30183,-3.93385 2.92484,-7.82936 5.4375,-11.15625 1.43047,-1.87222 3.47193,-3.87297 6.03125,-3.59375 1.97577,0.34601 3.13596,2.03952 3.8125,3.8125 0.25905,-0.14843 0.34857,-0.37158 0.0312,-0.90625 -0.58393,-2.14655 -1.75579,-4.60539 -4.1875,-5.03125 -0.15995,-0.0174 -0.3129,-0.0311 -0.46875,-0.0312 z m -12.90625,20.125 c 0.0682,0.57685 0.12051,1.13922 0.15625,1.71875 0.0349,0.005 0.0876,0.0247 0.125,0.0312 -0.0769,-0.58685 -0.16904,-1.16897 -0.28125,-1.75 z"
           style="fill:#3d7904;fill-opacity:1;fill-rule:nonzero;stroke:none"
           inkscape:connector-curvature="0" />
      </g>
      <g
         id="g9128"
         transform="matrix(0.3594815,0,0,0.3594815,190.80062,234.76705)">
        <path
           style="fill:#73d216;fill-opacity:1;fill-rule:nonzero;stroke:none"
           d="m 203.46875,278.125 c -2.55933,-0.27922 -4.59458,1.72624 -6.02505,3.59846 -2.51266,3.32689 -4.14187,7.21769 -5.4437,11.15154 -0.86531,-2.83915 -1.77321,-5.99562 -4.3191,-7.80234 -1.54276,-0.9683 -3.71327,-0.37546 -4.69451,1.11913 -0.94713,1.14918 -1.51366,2.54748 -2.01764,3.93321 1.02758,0.0949 2.83696,1.77147 3.22943,0.0632 0.39921,-0.95132 0.76688,-2.50535 2.06888,-2.40253 1.55591,1.35543 2.05333,3.47063 2.74992,5.3268 0.69301,2.21821 1.09034,4.52439 1.2333,6.84253 1.00972,0.14149 3.1462,1.03406 3.13542,-0.65939 1.17086,-5.74752 3.19877,-11.45 6.74393,-16.17758 0.81726,-1.14921 2.87209,-3.01809 3.91412,-1.10909 0.50278,1.19041 0.70283,3.52383 2.57307,2.40389 0.79144,-0.27029 1.67158,-0.21405 1.05468,-1.25352 -0.58393,-2.14655 -1.77104,-4.60842 -4.20275,-5.03428 z"
           id="path9130"
           inkscape:connector-curvature="0" />
        <path
           style="fill:#3d7904;fill-opacity:1;fill-rule:nonzero;stroke:none"
           d="m 203.17942,277.9212 c -2.33766,-0.003 -4.22143,1.86979 -5.5625,3.625 -2.51265,3.32689 -4.13567,7.2224 -5.4375,11.15625 -0.86531,-2.83915 -1.76661,-6.00578 -4.3125,-7.8125 -1.54275,-0.9683 -3.73751,-0.36959 -4.71875,1.125 -0.94713,1.14918 -1.49602,2.55177 -2,3.9375 0.30752,0.0284 0.67388,0.1964 1.0625,0.375 0.35343,-0.7759 0.76781,-1.52661 1.3125,-2.1875 0.98124,-1.49459 3.14475,-2.0933 4.6875,-1.125 2.54589,1.80672 3.4472,4.97335 4.3125,7.8125 1.30183,-3.93385 2.92484,-7.82936 5.4375,-11.15625 1.43047,-1.87222 3.47193,-3.87297 6.03125,-3.59375 1.97577,0.34601 3.13596,2.03952 3.8125,3.8125 0.25905,-0.14843 0.34857,-0.37158 0.0312,-0.90625 -0.58393,-2.14655 -1.75579,-4.60539 -4.1875,-5.03125 -0.15995,-0.0174 -0.3129,-0.0311 -0.46875,-0.0312 z m -12.90625,20.125 c 0.0682,0.57685 0.12051,1.13922 0.15625,1.71875 0.0349,0.005 0.0876,0.0247 0.125,0.0312 -0.0769,-0.58685 -0.16904,-1.16897 -0.28125,-1.75 z"
           id="path9132"
           inkscape:connector-curvature="0" />
      </g>
      <g
         transform="matrix(0.3594815,0,0,0.3594815,174.41706,234.47678)"
         id="g9134">
        <path
           id="path9136"
           d="m 203.46875,278.125 c -2.55933,-0.27922 -4.59458,1.72624 -6.02505,3.59846 -2.51266,3.32689 -4.14187,7.21769 -5.4437,11.15154 -0.86531,-2.83915 -1.77321,-5.99562 -4.3191,-7.80234 -1.54276,-0.9683 -3.71327,-0.37546 -4.69451,1.11913 -0.94713,1.14918 -1.51366,2.54748 -2.01764,3.93321 1.02758,0.0949 2.83696,1.77147 3.22943,0.0632 0.39921,-0.95132 0.76688,-2.50535 2.06888,-2.40253 1.55591,1.35543 2.05333,3.47063 2.74992,5.3268 0.69301,2.21821 1.09034,4.52439 1.2333,6.84253 1.00972,0.14149 3.1462,1.03406 3.13542,-0.65939 1.17086,-5.74752 3.19877,-11.45 6.74393,-16.17758 0.81726,-1.14921 2.87209,-3.01809 3.91412,-1.10909 0.50278,1.19041 0.70283,3.52383 2.57307,2.40389 0.79144,-0.27029 1.67158,-0.21405 1.05468,-1.25352 -0.58393,-2.14655 -1.77104,-4.60842 -4.20275,-5.03428 z"
           style="fill:#73d216;fill-opacity:1;fill-rule:nonzero;stroke:none"
           inkscape:connector-curvature="0" />
        <path
           id="path9138"
           d="m 203.17942,277.9212 c -2.33766,-0.003 -4.22143,1.86979 -5.5625,3.625 -2.51265,3.32689 -4.13567,7.2224 -5.4375,11.15625 -0.86531,-2.83915 -1.76661,-6.00578 -4.3125,-7.8125 -1.54275,-0.9683 -3.73751,-0.36959 -4.71875,1.125 -0.94713,1.14918 -1.49602,2.55177 -2,3.9375 0.30752,0.0284 0.67388,0.1964 1.0625,0.375 0.35343,-0.7759 0.76781,-1.52661 1.3125,-2.1875 0.98124,-1.49459 3.14475,-2.0933 4.6875,-1.125 2.54589,1.80672 3.4472,4.97335 4.3125,7.8125 1.30183,-3.93385 2.92484,-7.82936 5.4375,-11.15625 1.43047,-1.87222 3.47193,-3.87297 6.03125,-3.59375 1.97577,0.34601 3.13596,2.03952 3.8125,3.8125 0.25905,-0.14843 0.34857,-0.37158 0.0312,-0.90625 -0.58393,-2.14655 -1.75579,-4.60539 -4.1875,-5.03125 -0.15995,-0.0174 -0.3129,-0.0311 -0.46875,-0.0312 z m -12.90625,20.125 c 0.0682,0.57685 0.12051,1.13922 0.15625,1.71875 0.0349,0.005 0.0876,0.0247 0.125,0.0312 -0.0769,-0.58685 -0.16904,-1.16897 -0.28125,-1.75 z"
           style="fill:#3d7904;fill-opacity:1;fill-rule:nonzero;stroke:none"
           inkscape:connector-curvature="0" />
      </g>
      <g
         id="g9140"
         transform="matrix(-0.3594815,0,0,0.3594815,293.56266,235.7062)">
        <path
           style="fill:#73d216;fill-opacity:1;fill-rule:nonzero;stroke:none"
           d="m 203.46875,278.125 c -2.55933,-0.27922 -4.59458,1.72624 -6.02505,3.59846 -2.51266,3.32689 -4.14187,7.21769 -5.4437,11.15154 -0.86531,-2.83915 -1.77321,-5.99562 -4.3191,-7.80234 -1.54276,-0.9683 -3.71327,-0.37546 -4.69451,1.11913 -0.94713,1.14918 -1.51366,2.54748 -2.01764,3.93321 1.02758,0.0949 2.83696,1.77147 3.22943,0.0632 0.39921,-0.95132 0.76688,-2.50535 2.06888,-2.40253 1.55591,1.35543 2.05333,3.47063 2.74992,5.3268 0.69301,2.21821 1.09034,4.52439 1.2333,6.84253 1.00972,0.14149 3.1462,1.03406 3.13542,-0.65939 1.17086,-5.74752 3.19877,-11.45 6.74393,-16.17758 0.81726,-1.14921 2.87209,-3.01809 3.91412,-1.10909 0.50278,1.19041 0.70283,3.52383 2.57307,2.40389 0.79144,-0.27029 1.67158,-0.21405 1.05468,-1.25352 -0.58393,-2.14655 -1.77104,-4.60842 -4.20275,-5.03428 z"
           id="path9142"
           inkscape:connector-curvature="0" />
        <path
           style="fill:#3d7904;fill-opacity:1;fill-rule:nonzero;stroke:none"
           d="m 203.17942,277.9212 c -2.33766,-0.003 -4.22143,1.86979 -5.5625,3.625 -2.51265,3.32689 -4.13567,7.2224 -5.4375,11.15625 -0.86531,-2.83915 -1.76661,-6.00578 -4.3125,-7.8125 -1.54275,-0.9683 -3.73751,-0.36959 -4.71875,1.125 -0.94713,1.14918 -1.49602,2.55177 -2,3.9375 0.30752,0.0284 0.67388,0.1964 1.0625,0.375 0.35343,-0.7759 0.76781,-1.52661 1.3125,-2.1875 0.98124,-1.49459 3.14475,-2.0933 4.6875,-1.125 2.54589,1.80672 3.4472,4.97335 4.3125,7.8125 1.30183,-3.93385 2.92484,-7.82936 5.4375,-11.15625 1.43047,-1.87222 3.47193,-3.87297 6.03125,-3.59375 1.97577,0.34601 3.13596,2.03952 3.8125,3.8125 0.25905,-0.14843 0.34857,-0.37158 0.0312,-0.90625 -0.58393,-2.14655 -1.75579,-4.60539 -4.1875,-5.03125 -0.15995,-0.0174 -0.3129,-0.0311 -0.46875,-0.0312 z m -12.90625,20.125 c 0.0682,0.57685 0.12051,1.13922 0.15625,1.71875 0.0349,0.005 0.0876,0.0247 0.125,0.0312 -0.0769,-0.58685 -0.16904,-1.16897 -0.28125,-1.75 z"
           id="path9144"
           inkscape:connector-curvature="0" />
      </g>
      <g
         transform="matrix(-0.3594815,0,0,0.3594815,323.64154,212.01705)"
         id="g9152">
        <path
           id="path9154"
           d="m 203.46875,278.125 c -2.55933,-0.27922 -4.59458,1.72624 -6.02505,3.59846 -2.51266,3.32689 -4.14187,7.21769 -5.4437,11.15154 -0.86531,-2.83915 -1.77321,-5.99562 -4.3191,-7.80234 -1.54276,-0.9683 -3.71327,-0.37546 -4.69451,1.11913 -0.94713,1.14918 -1.51366,2.54748 -2.01764,3.93321 1.02758,0.0949 2.83696,1.77147 3.22943,0.0632 0.39921,-0.95132 0.76688,-2.50535 2.06888,-2.40253 1.55591,1.35543 2.05333,3.47063 2.74992,5.3268 0.69301,2.21821 1.09034,4.52439 1.2333,6.84253 1.00972,0.14149 3.1462,1.03406 3.13542,-0.65939 1.17086,-5.74752 3.19877,-11.45 6.74393,-16.17758 0.81726,-1.14921 2.87209,-3.01809 3.91412,-1.10909 0.50278,1.19041 0.70283,3.52383 2.57307,2.40389 0.79144,-0.27029 1.67158,-0.21405 1.05468,-1.25352 -0.58393,-2.14655 -1.77104,-4.60842 -4.20275,-5.03428 z"
           style="fill:#73d216;fill-opacity:1;fill-rule:nonzero;stroke:none"
           inkscape:connector-curvature="0" />
        <path
           id="path9156"
           d="m 203.17942,277.9212 c -2.33766,-0.003 -4.22143,1.86979 -5.5625,3.625 -2.51265,3.32689 -4.13567,7.2224 -5.4375,11.15625 -0.86531,-2.83915 -1.76661,-6.00578 -4.3125,-7.8125 -1.54275,-0.9683 -3.73751,-0.36959 -4.71875,1.125 -0.94713,1.14918 -1.49602,2.55177 -2,3.9375 0.30752,0.0284 0.67388,0.1964 1.0625,0.375 0.35343,-0.7759 0.76781,-1.52661 1.3125,-2.1875 0.98124,-1.49459 3.14475,-2.0933 4.6875,-1.125 2.54589,1.80672 3.4472,4.97335 4.3125,7.8125 1.30183,-3.93385 2.92484,-7.82936 5.4375,-11.15625 1.43047,-1.87222 3.47193,-3.87297 6.03125,-3.59375 1.97577,0.34601 3.13596,2.03952 3.8125,3.8125 0.25905,-0.14843 0.34857,-0.37158 0.0312,-0.90625 -0.58393,-2.14655 -1.75579,-4.60539 -4.1875,-5.03125 -0.15995,-0.0174 -0.3129,-0.0311 -0.46875,-0.0312 z m -12.90625,20.125 c 0.0682,0.57685 0.12051,1.13922 0.15625,1.71875 0.0349,0.005 0.0876,0.0247 0.125,0.0312 -0.0769,-0.58685 -0.16904,-1.16897 -0.28125,-1.75 z"
           style="fill:#3d7904;fill-opacity:1;fill-rule:nonzero;stroke:none"
           inkscape:connector-curvature="0" />
      </g>
      <g
         id="g9158"
         transform="matrix(-0.3594815,0,0,0.3594815,318.64154,250.26705)">
        <path
           style="fill:#73d216;fill-opacity:1;fill-rule:nonzero;stroke:none"
           d="m 203.46875,278.125 c -2.55933,-0.27922 -4.59458,1.72624 -6.02505,3.59846 -2.51266,3.32689 -4.14187,7.21769 -5.4437,11.15154 -0.86531,-2.83915 -1.77321,-5.99562 -4.3191,-7.80234 -1.54276,-0.9683 -3.71327,-0.37546 -4.69451,1.11913 -0.94713,1.14918 -1.51366,2.54748 -2.01764,3.93321 1.02758,0.0949 2.83696,1.77147 3.22943,0.0632 0.39921,-0.95132 0.76688,-2.50535 2.06888,-2.40253 1.55591,1.35543 2.05333,3.47063 2.74992,5.3268 0.69301,2.21821 1.09034,4.52439 1.2333,6.84253 1.00972,0.14149 3.1462,1.03406 3.13542,-0.65939 1.17086,-5.74752 3.19877,-11.45 6.74393,-16.17758 0.81726,-1.14921 2.87209,-3.01809 3.91412,-1.10909 0.50278,1.19041 0.70283,3.52383 2.57307,2.40389 0.79144,-0.27029 1.67158,-0.21405 1.05468,-1.25352 -0.58393,-2.14655 -1.77104,-4.60842 -4.20275,-5.03428 z"
           id="path9160"
           inkscape:connector-curvature="0" />
        <path
           style="fill:#3d7904;fill-opacity:1;fill-rule:nonzero;stroke:none"
           d="m 203.17942,277.9212 c -2.33766,-0.003 -4.22143,1.86979 -5.5625,3.625 -2.51265,3.32689 -4.13567,7.2224 -5.4375,11.15625 -0.86531,-2.83915 -1.76661,-6.00578 -4.3125,-7.8125 -1.54275,-0.9683 -3.73751,-0.36959 -4.71875,1.125 -0.94713,1.14918 -1.49602,2.55177 -2,3.9375 0.30752,0.0284 0.67388,0.1964 1.0625,0.375 0.35343,-0.7759 0.76781,-1.52661 1.3125,-2.1875 0.98124,-1.49459 3.14475,-2.0933 4.6875,-1.125 2.54589,1.80672 3.4472,4.97335 4.3125,7.8125 1.30183,-3.93385 2.92484,-7.82936 5.4375,-11.15625 1.43047,-1.87222 3.47193,-3.87297 6.03125,-3.59375 1.97577,0.34601 3.13596,2.03952 3.8125,3.8125 0.25905,-0.14843 0.34857,-0.37158 0.0312,-0.90625 -0.58393,-2.14655 -1.75579,-4.60539 -4.1875,-5.03125 -0.15995,-0.0174 -0.3129,-0.0311 -0.46875,-0.0312 z m -12.90625,20.125 c 0.0682,0.57685 0.12051,1.13922 0.15625,1.71875 0.0349,0.005 0.0876,0.0247 0.125,0.0312 -0.0769,-0.58685 -0.16904,-1.16897 -0.28125,-1.75 z"
           id="path9162"
           inkscape:connector-curvature="0" />
      </g>
      <g
         transform="matrix(-0.3594815,0,0,0.3594815,346.06266,223.9562)"
         id="g9164">
        <path
           id="path9166"
           d="m 203.46875,278.125 c -2.55933,-0.27922 -4.59458,1.72624 -6.02505,3.59846 -2.51266,3.32689 -4.14187,7.21769 -5.4437,11.15154 -0.86531,-2.83915 -1.77321,-5.99562 -4.3191,-7.80234 -1.54276,-0.9683 -3.71327,-0.37546 -4.69451,1.11913 -0.94713,1.14918 -1.51366,2.54748 -2.01764,3.93321 1.02758,0.0949 2.83696,1.77147 3.22943,0.0632 0.39921,-0.95132 0.76688,-2.50535 2.06888,-2.40253 1.55591,1.35543 2.05333,3.47063 2.74992,5.3268 0.69301,2.21821 1.09034,4.52439 1.2333,6.84253 1.00972,0.14149 3.1462,1.03406 3.13542,-0.65939 1.17086,-5.74752 3.19877,-11.45 6.74393,-16.17758 0.81726,-1.14921 2.87209,-3.01809 3.91412,-1.10909 0.50278,1.19041 0.70283,3.52383 2.57307,2.40389 0.79144,-0.27029 1.67158,-0.21405 1.05468,-1.25352 -0.58393,-2.14655 -1.77104,-4.60842 -4.20275,-5.03428 z"
           style="fill:#73d216;fill-opacity:1;fill-rule:nonzero;stroke:none"
           inkscape:connector-curvature="0" />
        <path
           id="path9168"
           d="m 203.17942,277.9212 c -2.33766,-0.003 -4.22143,1.86979 -5.5625,3.625 -2.51265,3.32689 -4.13567,7.2224 -5.4375,11.15625 -0.86531,-2.83915 -1.76661,-6.00578 -4.3125,-7.8125 -1.54275,-0.9683 -3.73751,-0.36959 -4.71875,1.125 -0.94713,1.14918 -1.49602,2.55177 -2,3.9375 0.30752,0.0284 0.67388,0.1964 1.0625,0.375 0.35343,-0.7759 0.76781,-1.52661 1.3125,-2.1875 0.98124,-1.49459 3.14475,-2.0933 4.6875,-1.125 2.54589,1.80672 3.4472,4.97335 4.3125,7.8125 1.30183,-3.93385 2.92484,-7.82936 5.4375,-11.15625 1.43047,-1.87222 3.47193,-3.87297 6.03125,-3.59375 1.97577,0.34601 3.13596,2.03952 3.8125,3.8125 0.25905,-0.14843 0.34857,-0.37158 0.0312,-0.90625 -0.58393,-2.14655 -1.75579,-4.60539 -4.1875,-5.03125 -0.15995,-0.0174 -0.3129,-0.0311 -0.46875,-0.0312 z m -12.90625,20.125 c 0.0682,0.57685 0.12051,1.13922 0.15625,1.71875 0.0349,0.005 0.0876,0.0247 0.125,0.0312 -0.0769,-0.58685 -0.16904,-1.16897 -0.28125,-1.75 z"
           style="fill:#3d7904;fill-opacity:1;fill-rule:nonzero;stroke:none"
           inkscape:connector-curvature="0" />
      </g>
    </g>
  </g>
</svg>
