<?xml version="1.0" encoding="UTF-8" standalone="no"?>
<!-- Created with Inkscape (http://www.inkscape.org/) -->

<svg
   xmlns:dc="http://purl.org/dc/elements/1.1/"
   xmlns:cc="http://creativecommons.org/ns#"
   xmlns:rdf="http://www.w3.org/1999/02/22-rdf-syntax-ns#"
   xmlns:svg="http://www.w3.org/2000/svg"
   xmlns="http://www.w3.org/2000/svg"
   xmlns:sodipodi="http://sodipodi.sourceforge.net/DTD/sodipodi-0.dtd"
   xmlns:inkscape="http://www.inkscape.org/namespaces/inkscape"
   width="64"
   height="128"
   id="svg4180"
   version="1.1"
   inkscape:version="0.48.2 r9819"
   sodipodi:docname="New document 3">
  <defs
     id="defs4182">
    <clipPath
       clipPathUnits="userSpaceOnUse"
       id="clipPath984">
      <path
         inkscape:connector-curvature="0"
         d="m 0,850.394 623.622,0 L 623.622,0 0,0 0,850.394 z"
         id="path986" />
    </clipPath>
    <clipPath
       clipPathUnits="userSpaceOnUse"
       id="clipPath938">
      <path
         inkscape:connector-curvature="0"
         d="m 120.724,658.227 c -0.597,-0.038 -1.166,-0.225 -1.529,-0.474 l 0,0 c -0.305,-0.209 -0.122,-0.412 -0.644,-0.583 l 0,0 c -0.152,-0.049 -0.312,-0.088 -0.474,-0.123 l 0,0 c -0.517,-0.027 -1.072,-0.049 -1.567,-0.172 l 0,0 c -0.252,-0.062 -0.422,-0.199 -0.606,-0.314 l 0,0 c -0.371,-0.167 -0.651,-0.368 -0.96,-0.573 l 0,0 c -0.519,-0.342 -0.992,-0.701 -1.212,-1.053 l 0,0 c -0.078,-0.127 -0.244,-0.297 -0.272,-0.411 l 0,0 c -0.01,-0.043 0.069,-0.063 0.046,-0.115 l 0,0 c -0.024,-0.059 -0.163,-0.157 -0.24,-0.216 l 0,0 c -0.727,-0.571 -1.777,-1.081 -2.55,-1.639 l 0,0 c -0.324,-0.235 -0.652,-0.463 -1.037,-0.687 l 0,0 c -0.143,-0.083 -0.358,-0.186 -0.459,-0.272 l 0,0 c -0.043,-0.037 -0.074,-0.072 -0.099,-0.105 l 0,0 c -0.118,-0.067 -0.232,-0.137 -0.354,-0.207 l 0,0 c -0.311,-0.183 -0.783,-0.502 -0.159,-0.507 l 0,0 c 0.567,-0.005 0.943,0.193 1.323,0.384 l 0,0 c 0.206,0.103 0.395,0.207 0.582,0.316 l 0,0 c 0.195,0.094 0.378,0.198 0.559,0.303 l 0,0 c 0.107,-0.012 0.214,-0.032 0.31,-0.062 l 0,0 c 0.174,-0.054 0.604,-0.398 0.781,-0.277 l 0,0 c 0.063,0.04 0.141,0.222 0.18,0.292 l 0,0 c 0.076,0.139 0.147,0.237 0.279,0.343 l 0,0 c 0.341,0.277 0.882,0.458 1.31,0.545 l 0,0 c 0.453,0.091 0.82,0.228 1.238,0.424 l 0,0 c 0.134,0.063 0.253,0.146 0.355,0.249 l 0,0 c 0.09,0.066 0.181,0.134 0.267,0.202 l 0,0 c 0.131,0.102 0.27,0.216 0.432,0.313 l 0,0 c 0.18,0.112 0.089,0.055 0.292,0.094 l 0,0 c 0.253,0.046 0.503,0.121 0.708,0.195 l 0,0 c 0.275,0.101 0.466,0.238 0.674,0.387 l 0,0 c 0.502,0.361 0.935,0.723 1.473,1.08 l 0,0 c 0.462,0.308 1.006,0.68 0.882,0.967 l 0,0 c -0.068,0.155 -0.343,0.317 -0.77,0.297 l 0,0 c 0.046,0.059 0.153,0.126 0.24,0.183 l 0,0 c 0.534,-0.025 1.394,0.451 1.711,0.756 l 0,0 c 0.018,0.003 0.037,0.006 0.053,0.005 l 0,0 c 0.16,0.116 0.228,0.147 0.14,0.253 l 0,0 c -0.044,0.054 -0.163,0.153 -0.312,0.151 l 0,0 c -0.117,0.036 -0.27,0.055 -0.443,0.055 l 0,0 c -0.048,0 -0.097,-10e-4 -0.148,-0.004"
         id="path940" />
    </clipPath>
    <mask
       maskUnits="userSpaceOnUse"
       x="0"
       y="0"
       width="1"
       height="1"
       id="mask956">
      <g
         id="g958">
        <g
           clip-path="url(#clipPath946)"
           id="g960">
          <g
             id="g962">
            <g
               id="g964">
              <path
                 inkscape:connector-curvature="0"
                 d="m -32768,32767 65535,0 0,-65534 -65535,0 0,65534 z"
                 style="fill:url(#linearGradient950);stroke:none"
                 id="path966" />
            </g>
          </g>
        </g>
      </g>
    </mask>
    <clipPath
       clipPathUnits="userSpaceOnUse"
       id="clipPath946">
      <path
         inkscape:connector-curvature="0"
         d="m -32768,32767 65535,0 0,-65534 -65535,0 0,65534 z"
         id="path948" />
    </clipPath>
    <linearGradient
       x1="0"
       y1="0"
       x2="1"
       y2="0"
       gradientUnits="userSpaceOnUse"
       gradientTransform="matrix(-13.36377,0,0,13.36377,121.66553,654.50342)"
       spreadMethod="pad"
       id="linearGradient950">
      <stop
         style="stop-opacity:0;stop-color:#ffffff"
         offset="0"
         id="stop952" />
      <stop
         style="stop-opacity:0.45000381;stop-color:#ffffff"
         offset="1"
         id="stop954" />
    </linearGradient>
    <linearGradient
       x1="0"
       y1="0"
       x2="1"
       y2="0"
       gradientUnits="userSpaceOnUse"
       gradientTransform="matrix(-13.36377,0,0,13.36377,121.66553,654.50342)"
       spreadMethod="pad"
       id="linearGradient972">
      <stop
         style="stop-opacity:1;stop-color:#ffffff"
         offset="0"
         id="stop974" />
      <stop
         style="stop-opacity:1;stop-color:#373535"
         offset="1"
         id="stop976" />
    </linearGradient>
  </defs>
  <sodipodi:namedview
     id="base"
     pagecolor="#ffffff"
     bordercolor="#666666"
     borderopacity="1.0"
     inkscape:pageopacity="0.0"
     inkscape:pageshadow="2"
     inkscape:zoom="1"
     inkscape:cx="134.98341"
     inkscape:cy="64.87011"
     inkscape:document-units="px"
     inkscape:current-layer="layer1"
     showgrid="false"
     fit-margin-top="0"
     fit-margin-left="0"
     fit-margin-right="0"
     fit-margin-bottom="0"
     inkscape:window-width="1366"
     inkscape:window-height="717"
     inkscape:window-x="-1"
     inkscape:window-y="-10"
     inkscape:window-maximized="1" />
  <metadata
     id="metadata4185">
    <rdf:RDF>
      <cc:Work
         rdf:about="">
        <dc:format>image/svg+xml</dc:format>
        <dc:type
           rdf:resource="http://purl.org/dc/dcmitype/StillImage" />
        <dc:title></dc:title>
      </cc:Work>
    </rdf:RDF>
  </metadata>
  <g
     inkscape:label="Layer 1"
     inkscape:groupmode="layer"
     id="layer1"
     transform="translate(-240.01659,-369.34626)">
    <g
       transform="matrix(14.464941,0,0,-10.201905,-1321.8816,7136.5078)"
       id="g980">
      <g
         id="g982"
         clip-path="url(#clipPath984)">
        <g
           id="g988"
           transform="translate(110.3765,661.0596)">
          <path
             inkscape:connector-curvature="0"
             d="M 0,0 -0.001,0.001 C 0.005,-0.003 0.013,-0.007 0.019,-0.02 L 0,0 z m 1.977,-9.547 c -0.132,0.189 -0.438,0.23 -0.612,0.4 -0.056,0.055 -0.101,0.119 -0.142,0.185 -0.028,0.228 -0.094,0.457 -0.156,0.67 -0.098,0.344 -0.102,0.688 -0.182,1.035 -0.096,0.418 -0.147,0.822 -0.183,1.246 -0.008,0.094 -0.019,0.19 -0.032,0.285 -0.002,0.138 -0.006,0.277 -0.012,0.414 -0.008,0.166 -0.021,0.35 -0.004,0.516 0.019,0.185 0.009,0.092 0.116,0.176 0.132,0.105 0.236,0.248 0.307,0.386 0.096,0.184 0.097,0.409 0.097,0.654 0,0.595 -0.049,1.178 -0.02,1.769 0.026,0.511 0.043,1.126 -0.327,1.522 -0.2,0.214 -0.552,0.405 -0.833,0.313 -0.025,0.092 -0.015,0.205 -0.012,0.3 C 0.386,0.365 0.525,1.176 0.45,1.661 0.459,1.669 0.469,1.677 0.482,1.677 0.48,1.869 0.5,1.921 0.332,2.063 0.247,2.134 0.066,2.258 -0.037,2.235 -0.187,2.277 -0.351,2.274 -0.502,2.219 -0.888,2.077 -1.105,1.726 -1.117,1.313 -1.127,0.969 -0.8,0.703 -1.001,0.381 -1.06,0.288 -1.133,0.207 -1.213,0.133 -1.551,0.019 -1.922,-0.093 -2.152,-0.343 -2.269,-0.47 -2.254,-0.69 -2.271,-0.885 -2.37,-1.177 -2.369,-1.509 -2.387,-1.848 -2.416,-2.419 -2.4,-3.001 -2.209,-3.541 c 0.069,-0.194 0.117,-0.461 0.211,-0.631 0.036,-0.063 0.111,-0.082 0.146,-0.159 0.04,-0.088 0.038,-0.25 0.043,-0.347 0.046,-0.928 -0.195,-1.814 -0.193,-2.731 10e-4,-0.385 -0.006,-0.762 -0.058,-1.139 -0.02,-0.142 -0.071,-0.32 -0.058,-0.46 0.006,-0.059 0.018,-0.113 0.033,-0.165 -0.016,-0.115 -0.03,-0.23 -0.046,-0.35 -0.041,-0.308 -0.062,-0.835 0.384,-0.751 0.405,0.076 0.476,0.414 0.559,0.744 0.043,0.177 0.073,0.358 0.1,0.541 0.093,0.34 0.111,0.73 0.183,1.078 0.036,0.174 0.095,0.363 0.121,0.545 0.045,0.199 0.076,0.398 0.076,0.613 0,0.071 0,0.141 0.002,0.211 0.006,0.023 0.01,0.046 0.017,0.07 0.024,0.082 0.126,0.553 0.261,0.483 0.137,-0.071 0.012,-1.143 0.027,-1.306 0.034,-0.363 0.198,-0.741 0.325,-1.077 0.102,-0.274 0.197,-0.553 0.305,-0.822 0.056,-0.232 0.15,-0.489 0.238,-0.528 0.07,-0.033 0.228,-0.016 0.334,-0.016 0.156,-0.064 0.326,-0.105 0.488,-0.136 0.123,-0.025 0.38,-0.098 0.5,-0.078 0.209,0.033 0.302,0.244 0.188,0.405"
             style="fill:#31444d;fill-opacity:1;fill-rule:nonzero;stroke:none"
             id="path990" />
        </g>
      </g>
    </g>
  </g>
</svg>
